<svg width="3117" height="383" viewBox="0 0 3117 383" fill="none" xmlns="http://www.w3.org/2000/svg">
<path d="M128.455 28.8925C204.81 26.6103 255.272 -20.714 409.445 13.1548C563.619 47.0236 631.821 108.833 787.164 121.468C942.507 134.103 1004.93 178.857 1133.79 232.918C1327.25 314.082 1675.1 330.705 1675.1 330.705" stroke="url(#paint0_linear_229_3639)" stroke-width="0.7"/>
<path d="M110.461 53.7779C187.345 49.3662 237.686 -2.37452 393.321 29.7223C548.957 61.8189 618.286 125.92 774.882 135.358C931.477 144.797 994.807 190.872 1125.15 245.143C1320.85 326.623 1671.38 335.321 1671.38 335.321" stroke="url(#paint1_linear_229_3639)" stroke-width="0.8"/>
<path d="M93.0371 79.066C170.398 72.507 220.479 16.3403 377.561 46.6241C534.643 76.908 605.2 143.279 762.984 149.481C920.767 155.682 985.073 203.06 1116.95 257.506C1314.95 339.247 1668 339.931 1668 339.931" stroke="url(#paint2_linear_229_3639)" stroke-width="0.9"/>
<path d="M76.1919 104.747C153.978 96.022 203.66 35.424 362.173 63.854C520.686 92.283 592.571 160.9 751.477 163.827C910.383 166.753 975.728 215.413 1109.18 269.995C1309.55 351.942 1664.94 344.528 1664.94 344.528" stroke="url(#paint3_linear_229_3639)"/>
<path d="M59.936 130.809C138.096 119.901 187.239 54.87 347.165 81.405C507.091 107.94 580.405 178.775 740.366 178.389C900.328 178.003 966.778 227.923 1101.86 282.602C1304.66 364.695 1662.21 349.102 1662.21 349.102" stroke="url(#paint4_linear_229_3639)" stroke-width="1.1"/>
<path d="M44.2791 157.241C122.76 144.135 171.225 74.6721 332.546 99.2711C493.867 123.87 568.708 196.894 729.657 193.16C890.607 189.426 958.226 240.58 1094.97 295.316C1300.28 377.493 1659.81 353.644 1659.81 353.644" stroke="url(#paint5_linear_229_3639)" stroke-width="1.2"/>
<path d="M29.231 184.031C107.979 168.713 155.625 94.8229 318.323 117.445C481.02 140.067 557.487 215.247 719.356 208.131C881.226 201.015 950.075 253.377 1088.53 308.127C1296.4 390.326 1657.75 358.147 1657.75 358.147" stroke="url(#paint6_linear_229_3639)" stroke-width="1.3"/>
<path d="M14.8 211.168C93.762 193.625 140.451 115.317 304.504 135.921C468.557 156.526 546.747 233.826 709.467 223.294C872.187 212.762 942.331 266.304 1082.54 321.025C1293.04 403.18 1656.01 362.602 1656.01 362.602" stroke="url(#paint7_linear_229_3639)" stroke-width="1.4"/>
<path d="M0.996094 238.64C80.1181 218.86 125.709 136.145 291.097 154.691C456.485 173.237 536.496 252.619 699.996 238.64C863.496 224.661 934.996 279.354 1077 334C1290.19 416.043 1654.6 367 1654.6 367" stroke="url(#paint8_linear_229_3639)" stroke-width="1.5"/>
<path d="M2988.55 28.8925C2912.19 26.6103 2861.73 -20.714 2707.55 13.1548C2553.38 47.0236 2485.18 108.833 2329.84 121.468C2174.49 134.103 2112.07 178.857 1983.21 232.918C1789.75 314.082 1441.9 330.705 1441.9 330.705" stroke="url(#paint9_linear_229_3639)" stroke-width="0.7"/>
<path d="M3006.54 53.7779C2929.66 49.3662 2879.31 -2.37452 2723.68 29.7223C2568.04 61.8189 2498.71 125.92 2342.12 135.358C2185.52 144.797 2122.19 190.872 1991.85 245.143C1796.15 326.623 1445.62 335.321 1445.62 335.321" stroke="url(#paint10_linear_229_3639)" stroke-width="0.8"/>
<path d="M3023.96 79.066C2946.6 72.507 2896.52 16.3403 2739.44 46.6241C2582.36 76.908 2511.8 143.279 2354.02 149.481C2196.23 155.682 2131.93 203.06 2000.05 257.506C1802.05 339.247 1449 339.931 1449 339.931" stroke="url(#paint11_linear_229_3639)" stroke-width="0.9"/>
<path d="M3040.81 104.747C2963.02 96.022 2913.34 35.424 2754.83 63.854C2596.31 92.283 2524.43 160.9 2365.52 163.827C2206.62 166.753 2141.27 215.413 2007.82 269.995C1807.45 351.942 1452.06 344.528 1452.06 344.528" stroke="url(#paint12_linear_229_3639)"/>
<path d="M3057.06 130.809C2978.9 119.901 2929.76 54.87 2769.83 81.405C2609.91 107.94 2536.59 178.775 2376.63 178.389C2216.67 178.003 2150.22 227.923 2015.14 282.602C1812.34 364.695 1454.79 349.102 1454.79 349.102" stroke="url(#paint13_linear_229_3639)" stroke-width="1.1"/>
<path d="M3072.72 157.241C2994.24 144.135 2945.78 74.6721 2784.45 99.2711C2623.13 123.87 2548.29 196.894 2387.34 193.16C2226.39 189.426 2158.77 240.58 2022.03 295.316C1816.72 377.493 1457.19 353.644 1457.19 353.644" stroke="url(#paint14_linear_229_3639)" stroke-width="1.2"/>
<path d="M3087.77 184.031C3009.02 168.713 2961.37 94.8229 2798.68 117.445C2635.98 140.067 2559.51 215.247 2397.64 208.131C2235.77 201.015 2166.92 253.377 2028.47 308.127C1820.6 390.326 1459.25 358.147 1459.25 358.147" stroke="url(#paint15_linear_229_3639)" stroke-width="1.3"/>
<path d="M3102.2 211.168C3023.24 193.625 2976.55 115.317 2812.5 135.921C2648.44 156.526 2570.25 233.826 2407.53 223.294C2244.81 212.762 2174.67 266.304 2034.46 321.025C1823.96 403.18 1460.99 362.602 1460.99 362.602" stroke="url(#paint16_linear_229_3639)" stroke-width="1.4"/>
<path d="M3116 238.64C3036.88 218.86 2991.29 136.145 2825.9 154.691C2660.51 173.237 2580.5 252.619 2417 238.64C2253.5 224.661 2182 279.354 2040 334C1826.81 416.043 1462.4 367 1462.4 367" stroke="url(#paint17_linear_229_3639)" stroke-width="1.5"/>
<defs>
<linearGradient id="paint0_linear_229_3639" x1="219" y1="21.0001" x2="218.469" y2="320.645" gradientUnits="userSpaceOnUse">
<stop stop-color="#FC594F" stop-opacity="0"/>
<stop offset="0.0548279" stop-color="#FC594F"/>
<stop offset="0.848928" stop-color="#5522B1"/>
<stop offset="1" stop-color="#5E4A92" stop-opacity="0"/>
</linearGradient>
<linearGradient id="paint1_linear_229_3639" x1="256" y1="32.9999" x2="258.576" y2="340.686" gradientUnits="userSpaceOnUse">
<stop stop-color="#FC594F" stop-opacity="0"/>
<stop offset="0.0881905" stop-color="#FC594F"/>
<stop offset="0.891583" stop-color="#5522B1"/>
<stop offset="1" stop-color="#5E4A92" stop-opacity="0"/>
</linearGradient>
<linearGradient id="paint2_linear_229_3639" x1="263" y1="72" x2="276.75" y2="391.891" gradientUnits="userSpaceOnUse">
<stop stop-color="#FC594F" stop-opacity="0"/>
<stop offset="0.0582288" stop-color="#FC594F"/>
<stop offset="0.891583" stop-color="#5522B1"/>
<stop offset="1" stop-color="#5E4A92" stop-opacity="0"/>
</linearGradient>
<linearGradient id="paint3_linear_229_3639" x1="291.226" y1="97.921" x2="312.56" y2="424.777" gradientUnits="userSpaceOnUse">
<stop stop-color="#FC594F" stop-opacity="0"/>
<stop offset="0.135417" stop-color="#FC594F"/>
<stop offset="0.891583" stop-color="#5522B1"/>
<stop offset="1" stop-color="#5E4A92" stop-opacity="0"/>
</linearGradient>
<linearGradient id="paint4_linear_229_3639" x1="276.247" y1="118.905" x2="307.29" y2="462.902" gradientUnits="userSpaceOnUse">
<stop stop-color="#FC594F" stop-opacity="0"/>
<stop offset="0.135417" stop-color="#FC594F"/>
<stop offset="0.891583" stop-color="#5522B1"/>
<stop offset="1" stop-color="#5E4A92" stop-opacity="0"/>
</linearGradient>
<linearGradient id="paint5_linear_229_3639" x1="261.754" y1="140.213" x2="303.325" y2="501.008" gradientUnits="userSpaceOnUse">
<stop stop-color="#FC594F" stop-opacity="0"/>
<stop offset="0.135417" stop-color="#FC594F"/>
<stop offset="0.891583" stop-color="#5522B1"/>
<stop offset="1" stop-color="#5E4A92" stop-opacity="0"/>
</linearGradient>
<linearGradient id="paint6_linear_229_3639" x1="247.756" y1="161.835" x2="300.655" y2="539.057" gradientUnits="userSpaceOnUse">
<stop stop-color="#FC594F" stop-opacity="0"/>
<stop offset="0.135417" stop-color="#FC594F"/>
<stop offset="0.891583" stop-color="#5522B1"/>
<stop offset="1" stop-color="#5E4A92" stop-opacity="0"/>
</linearGradient>
<linearGradient id="paint7_linear_229_3639" x1="234.261" y1="183.763" x2="299.269" y2="577.012" gradientUnits="userSpaceOnUse">
<stop stop-color="#FC594F" stop-opacity="0"/>
<stop offset="0.135417" stop-color="#FC594F"/>
<stop offset="0.891583" stop-color="#5522B1"/>
<stop offset="1" stop-color="#5E4A92" stop-opacity="0"/>
</linearGradient>
<linearGradient id="paint8_linear_229_3639" x1="221.278" y1="205.986" x2="299.157" y2="614.836" gradientUnits="userSpaceOnUse">
<stop stop-color="#FC594F" stop-opacity="0"/>
<stop offset="0.135417" stop-color="#FC594F"/>
<stop offset="0.891583" stop-color="#5522B1"/>
<stop offset="1" stop-color="#5E4A92" stop-opacity="0"/>
</linearGradient>
<linearGradient id="paint9_linear_229_3639" x1="2898" y1="21.0001" x2="2898.53" y2="320.645" gradientUnits="userSpaceOnUse">
<stop stop-color="#FC594F" stop-opacity="0"/>
<stop offset="0.0548279" stop-color="#FC594F"/>
<stop offset="0.848928" stop-color="#5522B1"/>
<stop offset="1" stop-color="#5E4A92" stop-opacity="0"/>
</linearGradient>
<linearGradient id="paint10_linear_229_3639" x1="2861" y1="32.9999" x2="2858.42" y2="340.686" gradientUnits="userSpaceOnUse">
<stop stop-color="#FC594F" stop-opacity="0"/>
<stop offset="0.0881905" stop-color="#FC594F"/>
<stop offset="0.891583" stop-color="#5522B1"/>
<stop offset="1" stop-color="#5E4A92" stop-opacity="0"/>
</linearGradient>
<linearGradient id="paint11_linear_229_3639" x1="2854" y1="72" x2="2840.25" y2="391.891" gradientUnits="userSpaceOnUse">
<stop stop-color="#FC594F" stop-opacity="0"/>
<stop offset="0.0582288" stop-color="#FC594F"/>
<stop offset="0.891583" stop-color="#5522B1"/>
<stop offset="1" stop-color="#5E4A92" stop-opacity="0"/>
</linearGradient>
<linearGradient id="paint12_linear_229_3639" x1="2825.77" y1="97.921" x2="2804.44" y2="424.777" gradientUnits="userSpaceOnUse">
<stop stop-color="#FC594F" stop-opacity="0"/>
<stop offset="0.135417" stop-color="#FC594F"/>
<stop offset="0.891583" stop-color="#5522B1"/>
<stop offset="1" stop-color="#5E4A92" stop-opacity="0"/>
</linearGradient>
<linearGradient id="paint13_linear_229_3639" x1="2840.75" y1="118.905" x2="2809.71" y2="462.902" gradientUnits="userSpaceOnUse">
<stop stop-color="#FC594F" stop-opacity="0"/>
<stop offset="0.135417" stop-color="#FC594F"/>
<stop offset="0.891583" stop-color="#5522B1"/>
<stop offset="1" stop-color="#5E4A92" stop-opacity="0"/>
</linearGradient>
<linearGradient id="paint14_linear_229_3639" x1="2855.25" y1="140.213" x2="2813.68" y2="501.008" gradientUnits="userSpaceOnUse">
<stop stop-color="#FC594F" stop-opacity="0"/>
<stop offset="0.135417" stop-color="#FC594F"/>
<stop offset="0.891583" stop-color="#5522B1"/>
<stop offset="1" stop-color="#5E4A92" stop-opacity="0"/>
</linearGradient>
<linearGradient id="paint15_linear_229_3639" x1="2869.24" y1="161.835" x2="2816.35" y2="539.057" gradientUnits="userSpaceOnUse">
<stop stop-color="#FC594F" stop-opacity="0"/>
<stop offset="0.135417" stop-color="#FC594F"/>
<stop offset="0.891583" stop-color="#5522B1"/>
<stop offset="1" stop-color="#5E4A92" stop-opacity="0"/>
</linearGradient>
<linearGradient id="paint16_linear_229_3639" x1="2882.74" y1="183.763" x2="2817.73" y2="577.012" gradientUnits="userSpaceOnUse">
<stop stop-color="#FC594F" stop-opacity="0"/>
<stop offset="0.135417" stop-color="#FC594F"/>
<stop offset="0.891583" stop-color="#5522B1"/>
<stop offset="1" stop-color="#5E4A92" stop-opacity="0"/>
</linearGradient>
<linearGradient id="paint17_linear_229_3639" x1="2895.72" y1="205.986" x2="2817.84" y2="614.836" gradientUnits="userSpaceOnUse">
<stop stop-color="#FC594F" stop-opacity="0"/>
<stop offset="0.135417" stop-color="#FC594F"/>
<stop offset="0.891583" stop-color="#5522B1"/>
<stop offset="1" stop-color="#5E4A92" stop-opacity="0"/>
</linearGradient>
</defs>
</svg>
